<svg xmlns="http://www.w3.org/2000/svg" xmlns:xlink="http://www.w3.org/1999/xlink" xmlns:lucid="lucid" width="902.5" height="576.44"><g transform="translate(-638.5 -99)" lucid:page-tab-id="0_0"><path d="M500 0h1500v1000H500z" fill="#fff"/><path d="M1200 296.97c0 31.46-26.87 56.97-60 56.97-33.14 0-60-25.5-60-56.97 0-31.46 26.86-56.97 60-56.97 33.13 0 60 25.5 60 56.97z" stroke="#000" stroke-opacity="0" stroke-width="3" fill="#1071e5"/><use xlink:href="#a" transform="matrix(1,0,0,1,1085,245) translate(4.443359374999993 59.517903645833336)"/><path d="M1078.5 296.97H932a12 12 0 0 0-12 12V478.9a12 12 0 0 1-12 12H780.6" stroke="#3a414a" stroke-width="3" fill="none"/><path d="M1080 296.97l.05 1.47h-1.6v-2.95h1.6z" stroke="#3a414a" stroke-width=".05" fill="#3a414a"/><path d="M764.85 490.9l14.26-4.63v9.27z" stroke="#3a414a" stroke-width="3" fill="#3a414a"/><path d="M760 490.9c0 31.47-26.87 56.98-60 56.98-33.14 0-60-25.5-60-56.97 0-31.46 26.86-56.96 60-56.96 33.13 0 60 25.5 60 56.97z" stroke="#000" stroke-opacity="0" stroke-width="3" fill="#9391ff"/><use xlink:href="#b" transform="matrix(1,0,0,1,645,438.9374168075283) translate(11.17919921875 47.01497395833333)"/><use xlink:href="#c" transform="matrix(1,0,0,1,645,438.9374168075283) translate(22.39046223958333 72.02083333333334)"/><path d="M1140 355.44v183.94" stroke="#3a414a" stroke-width="3" fill="none"/><path d="M1140 353.94l1.47-.06v1.6h-2.95v-1.6z" stroke="#3a414a" stroke-width=".05" fill="#3a414a"/><path d="M1140 555.15l-4.64-14.27h9.27z" stroke="#3a414a" stroke-width="3" fill="#3a414a"/><path d="M1200 616.97c0 31.46-26.87 56.97-60 56.97-33.14 0-60-25.5-60-56.97 0-31.46 26.86-56.97 60-56.97 33.13 0 60 25.5 60 56.97z" stroke="#000" stroke-opacity="0" stroke-width="3" fill="#b8f5ed"/><use xlink:href="#d" transform="matrix(1,0,0,1,1085,565) translate(12.90478515625 47.01497395833333)"/><use xlink:href="#e" transform="matrix(1,0,0,1,1085,565) translate(14.78173828125 72.02083333333334)"/><path d="M1201.5 296.97h6.5a12 12 0 0 1 12 12v127.38" stroke="#3a414a" stroke-width="3" fill="none"/><path d="M1201.53 298.44h-1.6l.06-1.47-.06-1.48h1.6z" stroke="#3a414a" stroke-width=".05" fill="#3a414a"/><path d="M1235.15 436.82l-14.4 4.2.28-9.27z" stroke="#3a414a" stroke-width="3" fill="#3a414a"/><path d="M1360 436.97c0 31.46-26.87 56.97-60 56.97-33.14 0-60-25.5-60-56.97 0-31.46 26.86-56.97 60-56.97 33.13 0 60 25.5 60 56.97z" stroke="#000" stroke-opacity="0" stroke-width="3" fill="#ffd9d9"/><use xlink:href="#f" transform="matrix(1,0,0,1,1245,385) translate(23.505533854166664 47.01497395833333)"/><use xlink:href="#g" transform="matrix(1,0,0,1,1245,385) translate(9.978352864583329 72.02083333333334)"/><path d="M1013.6 401.77a10.67 10.67 0 0 1 12.8 0l67.2 50.4a6 6 0 0 1 0 9.6l-67.2 50.4a10.67 10.67 0 0 1-12.8 0l-67.2-50.4a6 6 0 0 1 0-9.6z" stroke="#000" stroke-width="2" fill="#fff7a1"/><use xlink:href="#h" transform="matrix(1,0,0,1,945,401.96870840376414) translate(52.52267795138889 63.16460503472222)"/><path d="M1020 397.13v-57.36a12 12 0 0 1 12-12h36.95" stroke="#3a414a" stroke-width="3" fill="none"/><path d="M1021.48 398.73l-1.48-.1-1.48.1v-1.63h2.96z" stroke="#3a414a" stroke-width=".05" fill="#3a414a"/><path d="M1084.7 327.77l-14.25 4.64v-9.26z" stroke="#3a414a" stroke-width="3" fill="#3a414a"/><path d="M1020 516.8v73.97a12 12 0 0 0 12 12h29.3" stroke="#3a414a" stroke-width="3" fill="none"/><path d="M1020 515.3l1.48-.1v1.64h-2.96v-1.63z" stroke="#3a414a" stroke-width=".05" fill="#3a414a"/><path d="M1077.05 602.77l-14.26 4.63v-9.27z" stroke="#3a414a" stroke-width="3" fill="#3a414a"/><path d="M1078.5 616.97H927.8a12 12 0 0 1-12-12v-73.1a12 12 0 0 0-12-12H772.25" stroke="#3a414a" stroke-width="3" fill="none"/><path d="M1080 616.97l.05 1.47h-1.6v-2.95h1.6z" stroke="#3a414a" stroke-width=".05" fill="#3a414a"/><path d="M756.48 519.87l14.26-4.64v9.27z" stroke="#3a414a" stroke-width="3" fill="#3a414a"/><path d="M1300 495.44v78.43a12 12 0 0 1-12 12h-77.16" stroke="#3a414a" stroke-width="3" fill="none"/><path d="M1300 493.94l1.47-.06v1.6h-2.95v-1.6z" stroke="#3a414a" stroke-width=".05" fill="#3a414a"/><path d="M1195.07 585.87l14.27-4.63v9.27z" stroke="#3a414a" stroke-width="3" fill="#3a414a"/><path d="M1300 116a16 16 0 0 1 16-16h208a16 16 0 0 1 16 16v197.78a16 16 0 0 1-16 16h-208a16 16 0 0 1-16-16z" stroke="#dfe3e8" stroke-width="2" fill="#fff"/><path d="M1356.07 168.08c0 6.63-5.38 12-12.02 12-6.63 0-12-5.37-12-12 0-6.64 5.37-12 12-12 6.64 0 12.02 5.36 12.02 12z" stroke="#000" stroke-opacity=".25" fill="#1071e5"/><path d="M1356.07 200.12c0 6.63-5.38 12-12.02 12-6.63 0-12-5.37-12-12 0-6.64 5.37-12.02 12-12.02 6.64 0 12.02 5.38 12.02 12.02z" stroke="#000" stroke-opacity=".25" fill="#9391ff"/><path d="M1356.07 232.16c0 6.63-5.38 12-12.02 12-6.63 0-12-5.37-12-12 0-6.64 5.37-12.02 12-12.02 6.64 0 12.02 5.38 12.02 12.02z" stroke="#000" stroke-opacity=".25" fill="#b8f5ed"/><path d="M1356.07 264.2c0 6.63-5.38 12-12.02 12-6.63 0-12-5.37-12-12 0-6.64 5.37-12.02 12-12.02 6.64 0 12.02 5.38 12.02 12z" stroke="#000" stroke-opacity=".25" fill="#ffd9d9"/><path d="M1356.07 296.23c0 6.63-5.38 12-12.02 12-6.63 0-12-5.37-12-12 0-6.64 5.37-12 12-12 6.64 0 12.02 5.36 12.02 12z" stroke="#000" stroke-opacity=".25" fill="#fff7a1"/><use xlink:href="#i" transform="matrix(1,0,0,1,1332.0374892207144,124.02811691553579) translate(0 18.96701388888889)"/><use xlink:href="#j" transform="matrix(1,0,0,1,1332.0374892207144,124.02811691553579) translate(76.96180555555556 18.96701388888889)"/><use xlink:href="#k" transform="matrix(1,0,0,1,1368.0796645940181,156.06560613625018) translate(0 18.96701388888889)"/><use xlink:href="#l" transform="matrix(1,0,0,1,1368.0796645940181,156.06560613625018) translate(90.46006944444444 18.96701388888889)"/><g><use xlink:href="#m" transform="matrix(1,0,0,1,1368.0796645940181,188.10309535696456) translate(0 18.96701388888889)"/></g><g><use xlink:href="#n" transform="matrix(1,0,0,1,1368.0796645940181,220.14058457767894) translate(0 18.96701388888889)"/><use xlink:href="#o" transform="matrix(1,0,0,1,1368.0796645940181,220.14058457767894) translate(81.5017361111111 18.96701388888889)"/></g><g><use xlink:href="#p" transform="matrix(1,0,0,1,1368.0796645940181,252.17807379839334) translate(0 18.96701388888889)"/></g><g><use xlink:href="#q" transform="matrix(1,0,0,1,1368.0796645940181,284.2155630191077) translate(0 18.96701388888889)"/></g><defs><path fill="#fff" d="M135 0v-1490h997v253H440v360h640v249H440v375h694V0H135" id="r"/><path fill="#fff" d="M51 0l535-762-487-728h354c99 152 240 357 306 516 68-159 211-365 312-516h346L934-771 1461 0h-362C993-164 838-379 756-546 674-378 513-163 404 0H51" id="s"/><path fill="#fff" d="M135 0v-1490h581c339 0 533 192 533 485 0 204-94 351-264 424L1302 0H964L680-532H440V0H135zm305-779h220c186 0 274-77 274-226 0-150-88-233-275-233H440v459" id="t"/><path fill="#fff" d="M786 20C389 20 94-260 94-744c0-487 299-766 692-766 339 0 597 194 641 529h-309c-28-162-156-258-326-258-233 0-388 179-388 495 0 323 157 493 387 493 170 0 298-97 328-259h309c-34 277-266 530-642 530" id="u"/><path fill="#fff" d="M440-1490V0H135v-1490h305" id="v"/><path fill="#fff" d="M681 22C323 22 94-145 85-462h297c10 151 131 226 296 226 163 0 271-77 271-190 0-102-95-149-257-189l-164-41c-252-61-403-188-403-405 0-269 236-449 560-449 330 0 546 183 551 445H941c-11-119-106-188-259-188-156 0-244 72-244 172-3 156 226 185 373 221 250 61 445 186 445 436 0 271-213 446-575 446" id="w"/><g id="a"><use transform="matrix(0.010091145833333334,0,0,0.010091145833333334,0,0)" xlink:href="#r"/><use transform="matrix(0.010091145833333334,0,0,0.010091145833333334,12.553385416666668,0)" xlink:href="#s"/><use transform="matrix(0.010091145833333334,0,0,0.010091145833333334,27.811197916666668,0)" xlink:href="#r"/><use transform="matrix(0.010091145833333334,0,0,0.010091145833333334,40.364583333333336,0)" xlink:href="#t"/><use transform="matrix(0.010091145833333334,0,0,0.010091145833333334,53.93717447916667,0)" xlink:href="#u"/><use transform="matrix(0.010091145833333334,0,0,0.010091145833333334,69.22526041666667,0)" xlink:href="#v"/><use transform="matrix(0.010091145833333334,0,0,0.010091145833333334,75.02766927083334,0)" xlink:href="#w"/><use transform="matrix(0.010091145833333334,0,0,0.010091145833333334,88.55989583333334,0)" xlink:href="#r"/></g><path d="M645 0H180v-1490h484c435 0 692 280 692 742 0 466-257 748-711 748zM370-168h263c363 0 539-218 539-580 0-358-176-574-521-574H370v1154" id="x"/><path d="M784 20c-382 0-662-292-662-764 0-473 280-766 662-766s660 293 660 766c0 472-278 764-660 764zm0-176c266 0 475-207 475-588 0-383-209-590-475-590-268 0-477 208-477 590 0 380 209 588 477 588" id="y"/><path d="M783 20c-382 0-661-292-661-764 0-473 279-766 661-766 302 0 548 182 601 489h-190c-42-204-217-313-411-313-268 0-476 208-476 590 0 381 209 588 476 588 195 0 369-110 411-313h190c-52 303-296 489-601 489" id="z"/><path d="M98-1322v-168h1126v168H757V0H567v-1322H98" id="A"/><path d="M180 0v-1490h510c348 0 508 194 508 460 0 198-88 351-276 417L1256 0h-220L726-579c-117 2-238 0-356 1V0H180zm190-747h312c235 0 327-108 327-283 0-177-92-293-329-293H370v576" id="B"/><g id="b"><use transform="matrix(0.010091145833333334,0,0,0.010091145833333334,0,0)" xlink:href="#x"/><use transform="matrix(0.010091145833333334,0,0,0.010091145833333334,14.914713541666668,0)" xlink:href="#y"/><use transform="matrix(0.010091145833333334,0,0,0.010091145833333334,30.71744791666667,0)" xlink:href="#z"/><use transform="matrix(0.010091145833333334,0,0,0.010091145833333334,45.81380208333334,0)" xlink:href="#A"/><use transform="matrix(0.010091145833333334,0,0,0.010091145833333334,58.53873697916667,0)" xlink:href="#y"/><use transform="matrix(0.010091145833333334,0,0,0.010091145833333334,74.34147135416667,0)" xlink:href="#B"/></g><path d="M600 0L52-1490h200c166 485 304 806 458 1336 156-533 285-846 449-1336h202L819 0H600" id="C"/><path d="M370-1490V0H180v-1490h190" id="D"/><path d="M657 26c-323 0-524-166-541-416h195c15 169 171 246 346 246 202 0 356-106 356-265 5-203-294-238-475-293-239-73-380-191-380-389 0-252 224-419 512-419 294 0 499 171 508 396H992c-17-145-151-228-328-228-193 0-321 102-321 242 0 156 175 211 284 241l149 41c160 44 422 134 422 412 0 244-197 432-541 432" id="E"/><g id="c"><use transform="matrix(0.010091145833333334,0,0,0.010091145833333334,0,0)" xlink:href="#C"/><use transform="matrix(0.010091145833333334,0,0,0.010091145833333334,14.2587890625,0)" xlink:href="#D"/><use transform="matrix(0.010091145833333334,0,0,0.010091145833333334,19.808919270833336,0)" xlink:href="#E"/><use transform="matrix(0.010091145833333334,0,0,0.010091145833333334,33.068684895833336,0)" xlink:href="#D"/><use transform="matrix(0.010091145833333334,0,0,0.010091145833333334,38.61881510416667,0)" xlink:href="#A"/><use transform="matrix(0.010091145833333334,0,0,0.010091145833333334,51.95930989583334,0)" xlink:href="#E"/></g><path d="M180 0v-1490h270l367 940c28 72 75 218 110 339 35-117 81-264 110-339l362-940h271V0h-187c2-448-5-837 7-1287-157 497-311 829-483 1287H842C666-458 514-784 354-1284c12 438 5 843 7 1284H180" id="F"/><path d="M180 0v-1490h908v168H370v486h669v168H370v500h727V0H180" id="G"/><path d="M180 0v-1490h224l606 953c40 63 108 177 176 312-27-437-7-821-13-1265h190V0h-226C860-448 622-778 356-1262c27 476 11 792 15 1262H180" id="H"/><path d="M52 0l541-1490h220L1361 0h-200l-149-416H398L254 0H52zm404-582h497c-103-290-145-390-251-756-108 377-145 460-246 756" id="I"/><path d="M180 0v-1490h190v1322h690V0H180" id="J"/><g id="d"><use transform="matrix(0.010091145833333334,0,0,0.010091145833333334,0,0)" xlink:href="#F"/><use transform="matrix(0.010091145833333334,0,0,0.010091145833333334,18.668619791666668,0)" xlink:href="#G"/><use transform="matrix(0.010091145833333334,0,0,0.010091145833333334,31.090820312500004,0)" xlink:href="#H"/><use transform="matrix(0.010091145833333334,0,0,0.010091145833333334,46.661458333333336,0)" xlink:href="#A"/><use transform="matrix(0.010091145833333334,0,0,0.010091145833333334,58.24609375,0)" xlink:href="#I"/><use transform="matrix(0.010091145833333334,0,0,0.010091145833333334,72.5048828125,0)" xlink:href="#J"/></g><path d="M180 0v-1490h190v644h782v-644h190V0h-190v-678H370V0H180" id="K"/><g id="e"><use transform="matrix(0.010091145833333334,0,0,0.010091145833333334,0,0)" xlink:href="#K"/><use transform="matrix(0.010091145833333334,0,0,0.010091145833333334,15.358723958333334,0)" xlink:href="#G"/><use transform="matrix(0.010091145833333334,0,0,0.010091145833333334,27.780924479166668,0)" xlink:href="#I"/><use transform="matrix(0.010091145833333334,0,0,0.010091145833333334,42.03971354166667,0)" xlink:href="#J"/><use transform="matrix(0.010091145833333334,0,0,0.010091145833333334,51.7373046875,0)" xlink:href="#A"/><use transform="matrix(0.010091145833333334,0,0,0.010091145833333334,65.07779947916667,0)" xlink:href="#K"/></g><path d="M180 0v-1490h510c348 0 508 209 508 474 0 266-160 477-507 477H370V0H180zm190-706h312c236 0 327-133 327-310 0-176-91-307-329-307H370v617" id="L"/><g id="f"><use transform="matrix(0.010091145833333334,0,0,0.010091145833333334,0,0)" xlink:href="#E"/><use transform="matrix(0.010091145833333334,0,0,0.010091145833333334,13.259765625,0)" xlink:href="#J"/><use transform="matrix(0.010091145833333334,0,0,0.010091145833333334,24.9453125,0)" xlink:href="#G"/><use transform="matrix(0.010091145833333334,0,0,0.010091145833333334,37.367513020833336,0)" xlink:href="#G"/><use transform="matrix(0.010091145833333334,0,0,0.010091145833333334,49.78971354166667,0)" xlink:href="#L"/></g><path d="M784 20c-382 0-662-292-662-764 0-473 280-766 662-766s660 293 660 766c0 282-99 499-260 629l192 255h-198L1049-33C969 2 880 20 784 20zm-62-486h198l156 205c112-98 183-261 183-483 0-383-209-590-475-590-268 0-477 208-477 590 0 380 209 588 477 588 54 0 106-9 154-25" id="M"/><path d="M763 24c-353 0-583-224-583-531v-983h190v968c0 214 149 370 393 370 243 0 391-156 391-370v-968h190v983c0 307-230 531-581 531" id="N"/><path d="M600 0v-610L52-1490h220l295 481c50 82 90 150 130 243 40-96 80-164 128-243l294-481h219L790-610V0H600" id="O"/><g id="g"><use transform="matrix(0.010091145833333334,0,0,0.010091145833333334,0,0)" xlink:href="#M"/><use transform="matrix(0.010091145833333334,0,0,0.010091145833333334,15.802734375000002,0)" xlink:href="#N"/><use transform="matrix(0.010091145833333334,0,0,0.010091145833333334,30.777994791666668,0)" xlink:href="#I"/><use transform="matrix(0.010091145833333334,0,0,0.010091145833333334,45.03678385416667,0)" xlink:href="#J"/><use transform="matrix(0.010091145833333334,0,0,0.010091145833333334,56.72233072916667,0)" xlink:href="#D"/><use transform="matrix(0.010091145833333334,0,0,0.010091145833333334,62.27246093750001,0)" xlink:href="#A"/><use transform="matrix(0.010091145833333334,0,0,0.010091145833333334,76.01660156250001,0)" xlink:href="#O"/></g><path fill="#3a414a" d="M52 0l541-1490h220L1361 0h-200l-149-416H398L254 0H52zm404-582h497c-103-290-145-390-251-756-108 377-145 460-246 756" id="P"/><path fill="#3a414a" d="M789 20c-398 0-667-293-667-764 0-473 273-766 655-766 315 0 558 198 612 487h-196c-61-191-204-311-415-311-262 0-471 207-471 590 0 380 208 588 482 588 249 0 420-165 425-427H828v-166h572v163c0 370-256 606-611 606" id="Q"/><path fill="#3a414a" d="M180 0v-1490h908v168H370v486h669v168H370v500h727V0H180" id="R"/><g id="h"><use transform="matrix(0.010959201388888886,0,0,0.010959201388888886,0,0)" xlink:href="#P"/><use transform="matrix(0.010959201388888886,0,0,0.010959201388888886,14.718207465277775,0)" xlink:href="#Q"/><use transform="matrix(0.010959201388888886,0,0,0.010959201388888886,31.463867187499993,0)" xlink:href="#R"/></g><path d="M659 0H135v-1490h529c448 0 721 280 721 744 0 466-273 746-726 746zM440-263h204c287 0 437-148 437-483 0-333-150-481-435-481H440v964" id="S"/><path d="M128 0v-1118h300V0H128zm150-1264c-91 0-165-68-165-154 0-85 74-154 165-154 90 0 165 69 165 154 0 86-75 154-165 154" id="T"/><path d="M440 22C227 22 68-92 68-313c0-250 202-322 422-343 195-21 271-24 271-105 0-95-63-149-175-149-116 0-187 57-211 129l-275-46c57-194 237-305 487-305 240 0 474 108 474 379V0H777v-155h-10C713-51 605 22 440 22zm85-211c140 0 238-93 238-211v-121c-37 26-156 42-222 51-111 16-185 59-185 149 0 87 70 132 169 132" id="U"/><path d="M625 442c-280 0-454-114-503-274l258-72c28 63 97 128 243 128 153 0 246-69 246-216v-206h-23C805-108 717-16 536-16 284-16 81-191 81-561c0-378 208-571 456-571 188 0 280 113 321 202h13v-188h295V-9c0 303-226 451-541 451zm5-686c153 0 240-119 240-319 0-198-86-329-240-329-158 0-241 137-241 329 0 195 85 319 241 319" id="V"/><path d="M128 0v-1118h290v195h12c54-169 184-238 367-200v268c-27-8-86-15-130-15-138 0-239 95-239 234V0H128" id="W"/><path d="M128 0v-1118h278l12 217c60-163 185-234 319-234 143 0 236 81 288 251 63-172 205-251 359-251 205 0 357 138 357 381V0h-301v-697c0-126-76-187-177-187-114 0-184 79-184 196V0H789v-705c0-109-72-179-174-179-106 0-187 74-187 208V0H128" id="X"/><g id="i"><use transform="matrix(0.008680555555555556,0,0,0.008680555555555556,0,0)" xlink:href="#S"/><use transform="matrix(0.008680555555555556,0,0,0.008680555555555556,12.838541666666668,0)" xlink:href="#T"/><use transform="matrix(0.008680555555555556,0,0,0.008680555555555556,17.65625,0)" xlink:href="#U"/><use transform="matrix(0.008680555555555556,0,0,0.008680555555555556,27.977430555555557,0)" xlink:href="#V"/><use transform="matrix(0.008680555555555556,0,0,0.008680555555555556,39.21006944444444,0)" xlink:href="#W"/><use transform="matrix(0.008680555555555556,0,0,0.008680555555555556,46.20659722222222,0)" xlink:href="#U"/><use transform="matrix(0.008680555555555556,0,0,0.008680555555555556,56.52777777777778,0)" xlink:href="#X"/></g><path d="M128 0v-1490h300v802h17l366-430h347L740-633 1179 0H826L514-456l-86 97V0H128" id="Y"/><path d="M633 22C291 22 81-200 81-553c0-345 210-579 537-579 292 0 525 185 525 567v84H378c7 183 109 277 260 277 105 0 184-46 216-132l272 51C1071-99 893 22 633 22zM380-669h474c-15-146-94-237-233-237-143 0-229 99-241 237" id="Z"/><path d="M120 396l69-226c123 42 245 23 254-107l8-60L31-1118h319c87 288 199 559 259 872 72-308 185-583 277-872h315L726 132c-68 181-186 294-410 294-79 0-153-13-196-30" id="aa"/><g id="j"><use transform="matrix(0.008680555555555556,0,0,0.008680555555555556,0,0)" xlink:href="#Y"/><use transform="matrix(0.008680555555555556,0,0,0.008680555555555556,9.913194444444445,0)" xlink:href="#Z"/><use transform="matrix(0.008680555555555556,0,0,0.008680555555555556,20.182291666666668,0)" xlink:href="#aa"/></g><path d="M158 0v-1118h174v172h12c41-113 157-188 290-188 26 0 70 2 91 3v181c-11-2-60-10-108-10-161 0-279 109-279 260V0H158" id="ab"/><path d="M628 24c-324 0-524-230-524-574 0-343 198-582 503-582 237 0 487 146 487 559v75H286c9 234 145 362 343 362 132 0 231-58 273-172l174 48C1024-91 857 24 628 24zM287-650h624c-17-190-120-322-304-322-192 0-309 151-320 322" id="ac"/><path d="M471 26C259 26 90-98 90-318c0-256 228-303 435-329 202-27 287-16 287-108 0-139-79-219-234-219-161 0-248 86-283 164l-173-57c86-203 278-265 451-265 150 0 419 46 419 395V0H815v-152h-12C765-73 660 26 471 26zm31-159c199 0 310-134 310-271v-155c-30 35-226 55-295 64-131 17-246 59-246 186 0 116 97 176 231 176" id="ad"/><path d="M598-1118v154H368v674c0 100 37 144 132 144 23 0 62-6 92-12L629-6c-37 13-88 20-134 20-193 0-307-107-307-290v-688H20v-154h168v-266h180v266h230" id="ae"/><path d="M158 0v-1118h175l1 205c55-151 181-225 313-225 147 0 245 90 285 228 53-141 190-228 352-228 194 0 352 125 352 384V0h-181v-749c0-161-105-225-225-225-151 0-243 103-243 244V0H807v-767c0-124-93-207-219-207-131 0-250 92-250 270V0H158" id="af"/><path d="M338-670V0H158v-1118h173l1 207c72-158 192-221 342-221 226 0 378 139 378 422V0H872v-695c0-172-96-275-252-275-161 0-282 109-282 300" id="ag"/><g id="k"><use transform="matrix(0.008680555555555556,0,0,0.008680555555555556,0,0)" xlink:href="#A"/><use transform="matrix(0.008680555555555556,0,0,0.008680555555555556,10.46875,0)" xlink:href="#ab"/><use transform="matrix(0.008680555555555556,0,0,0.008680555555555556,16.866319444444443,0)" xlink:href="#ac"/><use transform="matrix(0.008680555555555556,0,0,0.008680555555555556,27.404513888888886,0)" xlink:href="#ad"/><use transform="matrix(0.008680555555555556,0,0,0.008680555555555556,37.38715277777777,0)" xlink:href="#ae"/><use transform="matrix(0.008680555555555556,0,0,0.008680555555555556,43.20312499999999,0)" xlink:href="#af"/><use transform="matrix(0.008680555555555556,0,0,0.008680555555555556,58.77604166666665,0)" xlink:href="#ac"/><use transform="matrix(0.008680555555555556,0,0,0.008680555555555556,69.14062499999999,0)" xlink:href="#ag"/><use transform="matrix(0.008680555555555556,0,0,0.008680555555555556,79.64409722222221,0)" xlink:href="#ae"/></g><path d="M218-607c0-325 108-727 258-974h175c-155 315-250 682-250 974 0 265 78 531 250 886H476C306-10 218-315 218-607" id="ah"/><path d="M57 0l534-763-501-727h220c122 187 296 416 391 605 94-191 272-419 396-605h215L811-770 1340 0h-219C986-204 811-426 699-640 588-430 407-202 273 0H57" id="ai"/><path d="M96 279C273-86 346-350 346-607c0-292-95-659-250-974h175c150 246 258 650 258 974 0 297-91 602-258 886H96" id="aj"/><g id="l"><use transform="matrix(0.008680555555555556,0,0,0.008680555555555556,0,0)" xlink:href="#ah"/><use transform="matrix(0.008680555555555556,0,0,0.008680555555555556,6.484375,0)" xlink:href="#ai"/><use transform="matrix(0.008680555555555556,0,0,0.008680555555555556,18.611111111111114,0)" xlink:href="#aj"/></g><path d="M613 24c-304 0-509-231-509-576 0-350 205-580 509-580 305 0 511 230 511 580 0 345-206 576-511 576zm0-161c226 0 329-195 329-415 0-222-103-419-329-419-223 0-326 196-326 419 0 220 103 415 326 415" id="ak"/><path d="M338-1490V0H158v-1490h180" id="al"/><path d="M158 0v-1118h180V0H158zm91-1301c-68 0-125-53-125-119s57-119 125-119c69 0 126 53 126 119s-57 119-126 119" id="am"/><path d="M577 24c-279 0-473-224-473-580 0-354 195-576 474-576 218 0 287 134 324 193h14v-551h180V0H922v-173h-20C865-111 790 24 577 24zm27-161c203 0 314-172 314-421 0-247-108-413-314-413-212 0-317 181-317 413 0 235 108 421 317 421" id="an"/><g id="m"><use transform="matrix(0.008680555555555556,0,0,0.008680555555555556,0,0)" xlink:href="#z"/><use transform="matrix(0.008680555555555556,0,0,0.008680555555555556,12.986111111111112,0)" xlink:href="#ak"/><use transform="matrix(0.008680555555555556,0,0,0.008680555555555556,23.645833333333336,0)" xlink:href="#al"/><use transform="matrix(0.008680555555555556,0,0,0.008680555555555556,27.951388888888893,0)" xlink:href="#al"/><use transform="matrix(0.008680555555555556,0,0,0.008680555555555556,32.25694444444445,0)" xlink:href="#am"/><use transform="matrix(0.008680555555555556,0,0,0.008680555555555556,36.56250000000001,0)" xlink:href="#an"/><use transform="matrix(0.008680555555555556,0,0,0.008680555555555556,47.44791666666667,0)" xlink:href="#ac"/><use transform="matrix(0.008680555555555556,0,0,0.008680555555555556,57.81250000000001,0)" xlink:href="#ab"/></g><path d="M537 14c-226 0-379-139-379-422v-710h180v695c0 172 97 275 253 275 160 0 281-109 281-300v-670h181V0H879v-209C806-46 684 14 537 14" id="ao"/><path d="M613 24c-304 0-509-231-509-576 0-350 205-580 509-580 216 0 392 114 453 309l-173 49c-33-115-133-197-280-197-223 0-326 196-326 419 0 220 103 415 326 415 150 0 252-85 285-206l172 49C1010-95 832 24 613 24" id="ap"/><g id="n"><use transform="matrix(0.008680555555555556,0,0,0.008680555555555556,0,0)" xlink:href="#y"/><use transform="matrix(0.008680555555555556,0,0,0.008680555555555556,13.59375,0)" xlink:href="#ao"/><use transform="matrix(0.008680555555555556,0,0,0.008680555555555556,24.10590277777778,0)" xlink:href="#ae"/><use transform="matrix(0.008680555555555556,0,0,0.008680555555555556,29.74826388888889,0)" xlink:href="#ap"/><use transform="matrix(0.008680555555555556,0,0,0.008680555555555556,39.904513888888886,0)" xlink:href="#ak"/><use transform="matrix(0.008680555555555556,0,0,0.008680555555555556,50.56423611111111,0)" xlink:href="#af"/><use transform="matrix(0.008680555555555556,0,0,0.008680555555555556,66.13715277777777,0)" xlink:href="#ac"/></g><g id="o"><use transform="matrix(0.008680555555555556,0,0,0.008680555555555556,0,0)" xlink:href="#ah"/><use transform="matrix(0.008680555555555556,0,0,0.008680555555555556,6.484375,0)" xlink:href="#O"/><use transform="matrix(0.008680555555555556,0,0,0.008680555555555556,18.55034722222222,0)" xlink:href="#aj"/></g><g id="p"><use transform="matrix(0.008680555555555556,0,0,0.008680555555555556,0,0)" xlink:href="#F"/><use transform="matrix(0.008680555555555556,0,0,0.008680555555555556,16.05902777777778,0)" xlink:href="#ac"/><use transform="matrix(0.008680555555555556,0,0,0.008680555555555556,26.423611111111118,0)" xlink:href="#an"/><use transform="matrix(0.008680555555555556,0,0,0.008680555555555556,37.309027777777786,0)" xlink:href="#am"/><use transform="matrix(0.008680555555555556,0,0,0.008680555555555556,41.61458333333334,0)" xlink:href="#ad"/><use transform="matrix(0.008680555555555556,0,0,0.008680555555555556,51.597222222222236,0)" xlink:href="#ae"/><use transform="matrix(0.008680555555555556,0,0,0.008680555555555556,57.239583333333336,0)" xlink:href="#ak"/><use transform="matrix(0.008680555555555556,0,0,0.008680555555555556,67.89930555555556,0)" xlink:href="#ab"/></g><path d="M678-1118v154H420V0H240v-964H20v-154h220v-149c0-194 155-293 318-293 85 0 141 18 168 30l-50 154c-19-6-47-17-97-17-111 0-159 58-159 166v109h258" id="aq"/><g id="q"><use transform="matrix(0.008680555555555556,0,0,0.008680555555555556,0,0)" xlink:href="#z"/><use transform="matrix(0.008680555555555556,0,0,0.008680555555555556,12.986111111111112,0)" xlink:href="#ak"/><use transform="matrix(0.008680555555555556,0,0,0.008680555555555556,23.645833333333336,0)" xlink:href="#ag"/><use transform="matrix(0.008680555555555556,0,0,0.008680555555555556,34.14930555555556,0)" xlink:href="#aq"/><use transform="matrix(0.008680555555555556,0,0,0.008680555555555556,40.208333333333336,0)" xlink:href="#ak"/><use transform="matrix(0.008680555555555556,0,0,0.008680555555555556,50.86805555555556,0)" xlink:href="#ao"/><use transform="matrix(0.008680555555555556,0,0,0.008680555555555556,61.380208333333336,0)" xlink:href="#ag"/><use transform="matrix(0.008680555555555556,0,0,0.008680555555555556,71.88368055555556,0)" xlink:href="#an"/><use transform="matrix(0.008680555555555556,0,0,0.008680555555555556,82.76909722222223,0)" xlink:href="#ac"/><use transform="matrix(0.008680555555555556,0,0,0.008680555555555556,93.13368055555556,0)" xlink:href="#ab"/></g></defs></g></svg>